<mxfile host="app.diagrams.net" modified="2024-07-02T19:56:15.993Z" agent="Mozilla/5.0 (X11; Linux x86_64) AppleWebKit/537.36 (KHTML, like Gecko) Chrome/126.0.0.0 Safari/537.36" etag="Zb2dpaGKSf9fnsR8NIDN" version="24.5.4" type="device">
  <diagram name="Página-1" id="cbngBlHqCQ3E8CZFYbKJ">
    <mxGraphModel dx="2876" dy="3509" grid="1" gridSize="10" guides="1" tooltips="1" connect="1" arrows="1" fold="1" page="1" pageScale="1" pageWidth="827" pageHeight="1169" math="0" shadow="0">
      <root>
        <mxCell id="0" />
        <mxCell id="1" parent="0" />
        <mxCell id="aKq8IcsFDjsxGVP1KrST-243" value="" style="endArrow=none;html=1;rounded=0;exitX=0.5;exitY=0;exitDx=0;exitDy=0;" edge="1" parent="1">
          <mxGeometry width="50" height="50" relative="1" as="geometry">
            <mxPoint x="-250.56" y="-1000" as="sourcePoint" />
            <mxPoint x="-250.56" y="-1070" as="targetPoint" />
          </mxGeometry>
        </mxCell>
        <mxCell id="aKq8IcsFDjsxGVP1KrST-234" value="" style="endArrow=none;html=1;rounded=0;exitX=0.5;exitY=0;exitDx=0;exitDy=0;" edge="1" parent="1">
          <mxGeometry width="50" height="50" relative="1" as="geometry">
            <mxPoint x="-250.56" y="-1180" as="sourcePoint" />
            <mxPoint x="-250.56" y="-1250" as="targetPoint" />
          </mxGeometry>
        </mxCell>
        <mxCell id="aKq8IcsFDjsxGVP1KrST-203" value="" style="rounded=0;whiteSpace=wrap;html=1;strokeColor=default;align=center;verticalAlign=middle;fontFamily=Helvetica;fontSize=16;fontColor=default;fontStyle=0;fillColor=default;" vertex="1" parent="1">
          <mxGeometry x="270" y="-1990" width="1160" height="430" as="geometry" />
        </mxCell>
        <mxCell id="aKq8IcsFDjsxGVP1KrST-1" value="População Inicial" style="shape=table;startSize=30;container=1;collapsible=0;childLayout=tableLayout;strokeColor=default;fontSize=16;" vertex="1" parent="1">
          <mxGeometry x="590" y="-2300" width="480" height="260" as="geometry" />
        </mxCell>
        <mxCell id="aKq8IcsFDjsxGVP1KrST-2" value="" style="shape=tableRow;horizontal=0;startSize=0;swimlaneHead=0;swimlaneBody=0;strokeColor=inherit;top=0;left=0;bottom=0;right=0;collapsible=0;dropTarget=0;fillColor=none;points=[[0,0.5],[1,0.5]];portConstraint=eastwest;fontSize=16;" vertex="1" parent="aKq8IcsFDjsxGVP1KrST-1">
          <mxGeometry y="30" width="480" height="77" as="geometry" />
        </mxCell>
        <mxCell id="aKq8IcsFDjsxGVP1KrST-3" value="Indivíduo 1" style="shape=partialRectangle;html=1;whiteSpace=wrap;connectable=0;strokeColor=inherit;overflow=hidden;fillColor=none;top=0;left=0;bottom=0;right=0;pointerEvents=1;fontSize=16;" vertex="1" parent="aKq8IcsFDjsxGVP1KrST-2">
          <mxGeometry width="160" height="77" as="geometry">
            <mxRectangle width="160" height="77" as="alternateBounds" />
          </mxGeometry>
        </mxCell>
        <mxCell id="aKq8IcsFDjsxGVP1KrST-4" value="Indivíduo 2" style="shape=partialRectangle;html=1;whiteSpace=wrap;connectable=0;strokeColor=inherit;overflow=hidden;fillColor=none;top=0;left=0;bottom=0;right=0;pointerEvents=1;fontSize=16;" vertex="1" parent="aKq8IcsFDjsxGVP1KrST-2">
          <mxGeometry x="160" width="160" height="77" as="geometry">
            <mxRectangle width="160" height="77" as="alternateBounds" />
          </mxGeometry>
        </mxCell>
        <mxCell id="aKq8IcsFDjsxGVP1KrST-5" value="Indivíduo 3" style="shape=partialRectangle;html=1;whiteSpace=wrap;connectable=0;strokeColor=inherit;overflow=hidden;fillColor=none;top=0;left=0;bottom=0;right=0;pointerEvents=1;fontSize=16;" vertex="1" parent="aKq8IcsFDjsxGVP1KrST-2">
          <mxGeometry x="320" width="160" height="77" as="geometry">
            <mxRectangle width="160" height="77" as="alternateBounds" />
          </mxGeometry>
        </mxCell>
        <mxCell id="aKq8IcsFDjsxGVP1KrST-6" value="" style="shape=tableRow;horizontal=0;startSize=0;swimlaneHead=0;swimlaneBody=0;strokeColor=inherit;top=0;left=0;bottom=0;right=0;collapsible=0;dropTarget=0;fillColor=none;points=[[0,0.5],[1,0.5]];portConstraint=eastwest;fontSize=16;" vertex="1" parent="aKq8IcsFDjsxGVP1KrST-1">
          <mxGeometry y="107" width="480" height="76" as="geometry" />
        </mxCell>
        <mxCell id="aKq8IcsFDjsxGVP1KrST-7" value="Indivíduo 4" style="shape=partialRectangle;html=1;whiteSpace=wrap;connectable=0;strokeColor=inherit;overflow=hidden;fillColor=none;top=0;left=0;bottom=0;right=0;pointerEvents=1;fontSize=16;" vertex="1" parent="aKq8IcsFDjsxGVP1KrST-6">
          <mxGeometry width="160" height="76" as="geometry">
            <mxRectangle width="160" height="76" as="alternateBounds" />
          </mxGeometry>
        </mxCell>
        <mxCell id="aKq8IcsFDjsxGVP1KrST-8" value="Indivíduo 5" style="shape=partialRectangle;html=1;whiteSpace=wrap;connectable=0;strokeColor=inherit;overflow=hidden;fillColor=none;top=0;left=0;bottom=0;right=0;pointerEvents=1;fontSize=16;" vertex="1" parent="aKq8IcsFDjsxGVP1KrST-6">
          <mxGeometry x="160" width="160" height="76" as="geometry">
            <mxRectangle width="160" height="76" as="alternateBounds" />
          </mxGeometry>
        </mxCell>
        <mxCell id="aKq8IcsFDjsxGVP1KrST-9" value="Indivíduo 6" style="shape=partialRectangle;html=1;whiteSpace=wrap;connectable=0;strokeColor=inherit;overflow=hidden;fillColor=none;top=0;left=0;bottom=0;right=0;pointerEvents=1;fontSize=16;" vertex="1" parent="aKq8IcsFDjsxGVP1KrST-6">
          <mxGeometry x="320" width="160" height="76" as="geometry">
            <mxRectangle width="160" height="76" as="alternateBounds" />
          </mxGeometry>
        </mxCell>
        <mxCell id="aKq8IcsFDjsxGVP1KrST-10" value="" style="shape=tableRow;horizontal=0;startSize=0;swimlaneHead=0;swimlaneBody=0;strokeColor=inherit;top=0;left=0;bottom=0;right=0;collapsible=0;dropTarget=0;fillColor=none;points=[[0,0.5],[1,0.5]];portConstraint=eastwest;fontSize=16;" vertex="1" parent="aKq8IcsFDjsxGVP1KrST-1">
          <mxGeometry y="183" width="480" height="77" as="geometry" />
        </mxCell>
        <mxCell id="aKq8IcsFDjsxGVP1KrST-11" value="Indivíduo 7" style="shape=partialRectangle;html=1;whiteSpace=wrap;connectable=0;strokeColor=inherit;overflow=hidden;fillColor=none;top=0;left=0;bottom=0;right=0;pointerEvents=1;fontSize=16;" vertex="1" parent="aKq8IcsFDjsxGVP1KrST-10">
          <mxGeometry width="160" height="77" as="geometry">
            <mxRectangle width="160" height="77" as="alternateBounds" />
          </mxGeometry>
        </mxCell>
        <mxCell id="aKq8IcsFDjsxGVP1KrST-12" value="Indivíduo 8" style="shape=partialRectangle;html=1;whiteSpace=wrap;connectable=0;strokeColor=inherit;overflow=hidden;fillColor=none;top=0;left=0;bottom=0;right=0;pointerEvents=1;fontSize=16;" vertex="1" parent="aKq8IcsFDjsxGVP1KrST-10">
          <mxGeometry x="160" width="160" height="77" as="geometry">
            <mxRectangle width="160" height="77" as="alternateBounds" />
          </mxGeometry>
        </mxCell>
        <mxCell id="aKq8IcsFDjsxGVP1KrST-13" value="Indivíduo 9" style="shape=partialRectangle;html=1;whiteSpace=wrap;connectable=0;strokeColor=inherit;overflow=hidden;fillColor=none;top=0;left=0;bottom=0;right=0;pointerEvents=1;fontSize=16;" vertex="1" parent="aKq8IcsFDjsxGVP1KrST-10">
          <mxGeometry x="320" width="160" height="77" as="geometry">
            <mxRectangle width="160" height="77" as="alternateBounds" />
          </mxGeometry>
        </mxCell>
        <mxCell id="aKq8IcsFDjsxGVP1KrST-14" value="Diminuição da distância" style="shape=table;startSize=30;container=1;collapsible=0;childLayout=tableLayout;fixedRows=1;rowLines=0;fontStyle=0;strokeColor=default;fontSize=16;" vertex="1" parent="1">
          <mxGeometry x="330" y="-1700" width="180" height="120" as="geometry" />
        </mxCell>
        <mxCell id="aKq8IcsFDjsxGVP1KrST-15" value="" style="shape=tableRow;horizontal=0;startSize=0;swimlaneHead=0;swimlaneBody=0;top=0;left=0;bottom=0;right=0;collapsible=0;dropTarget=0;fillColor=none;points=[[0,0.5],[1,0.5]];portConstraint=eastwest;strokeColor=inherit;fontSize=16;" vertex="1" parent="aKq8IcsFDjsxGVP1KrST-14">
          <mxGeometry y="30" width="180" height="30" as="geometry" />
        </mxCell>
        <mxCell id="aKq8IcsFDjsxGVP1KrST-16" value="1" style="shape=partialRectangle;html=1;whiteSpace=wrap;connectable=0;fillColor=none;top=0;left=0;bottom=0;right=0;overflow=hidden;pointerEvents=1;strokeColor=inherit;fontSize=16;" vertex="1" parent="aKq8IcsFDjsxGVP1KrST-15">
          <mxGeometry width="40" height="30" as="geometry">
            <mxRectangle width="40" height="30" as="alternateBounds" />
          </mxGeometry>
        </mxCell>
        <mxCell id="aKq8IcsFDjsxGVP1KrST-17" value="Indivíduo 1" style="shape=partialRectangle;html=1;whiteSpace=wrap;connectable=0;fillColor=none;top=0;left=0;bottom=0;right=0;align=left;spacingLeft=6;overflow=hidden;strokeColor=inherit;fontSize=16;" vertex="1" parent="aKq8IcsFDjsxGVP1KrST-15">
          <mxGeometry x="40" width="140" height="30" as="geometry">
            <mxRectangle width="140" height="30" as="alternateBounds" />
          </mxGeometry>
        </mxCell>
        <mxCell id="aKq8IcsFDjsxGVP1KrST-18" value="" style="shape=tableRow;horizontal=0;startSize=0;swimlaneHead=0;swimlaneBody=0;top=0;left=0;bottom=0;right=0;collapsible=0;dropTarget=0;fillColor=none;points=[[0,0.5],[1,0.5]];portConstraint=eastwest;strokeColor=inherit;fontSize=16;" vertex="1" parent="aKq8IcsFDjsxGVP1KrST-14">
          <mxGeometry y="60" width="180" height="30" as="geometry" />
        </mxCell>
        <mxCell id="aKq8IcsFDjsxGVP1KrST-19" value="2" style="shape=partialRectangle;html=1;whiteSpace=wrap;connectable=0;fillColor=none;top=0;left=0;bottom=0;right=0;overflow=hidden;strokeColor=inherit;fontSize=16;" vertex="1" parent="aKq8IcsFDjsxGVP1KrST-18">
          <mxGeometry width="40" height="30" as="geometry">
            <mxRectangle width="40" height="30" as="alternateBounds" />
          </mxGeometry>
        </mxCell>
        <mxCell id="aKq8IcsFDjsxGVP1KrST-20" value="Indivíduo 4" style="shape=partialRectangle;html=1;whiteSpace=wrap;connectable=0;fillColor=none;top=0;left=0;bottom=0;right=0;align=left;spacingLeft=6;overflow=hidden;strokeColor=inherit;fontSize=16;" vertex="1" parent="aKq8IcsFDjsxGVP1KrST-18">
          <mxGeometry x="40" width="140" height="30" as="geometry">
            <mxRectangle width="140" height="30" as="alternateBounds" />
          </mxGeometry>
        </mxCell>
        <mxCell id="aKq8IcsFDjsxGVP1KrST-21" value="" style="shape=tableRow;horizontal=0;startSize=0;swimlaneHead=0;swimlaneBody=0;top=0;left=0;bottom=0;right=0;collapsible=0;dropTarget=0;fillColor=none;points=[[0,0.5],[1,0.5]];portConstraint=eastwest;strokeColor=inherit;fontSize=16;" vertex="1" parent="aKq8IcsFDjsxGVP1KrST-14">
          <mxGeometry y="90" width="180" height="30" as="geometry" />
        </mxCell>
        <mxCell id="aKq8IcsFDjsxGVP1KrST-22" value="3" style="shape=partialRectangle;html=1;whiteSpace=wrap;connectable=0;fillColor=none;top=0;left=0;bottom=0;right=0;overflow=hidden;strokeColor=inherit;fontSize=16;" vertex="1" parent="aKq8IcsFDjsxGVP1KrST-21">
          <mxGeometry width="40" height="30" as="geometry">
            <mxRectangle width="40" height="30" as="alternateBounds" />
          </mxGeometry>
        </mxCell>
        <mxCell id="aKq8IcsFDjsxGVP1KrST-23" value="Indivíduo 6" style="shape=partialRectangle;html=1;whiteSpace=wrap;connectable=0;fillColor=none;top=0;left=0;bottom=0;right=0;align=left;spacingLeft=6;overflow=hidden;strokeColor=inherit;fontSize=16;" vertex="1" parent="aKq8IcsFDjsxGVP1KrST-21">
          <mxGeometry x="40" width="140" height="30" as="geometry">
            <mxRectangle width="140" height="30" as="alternateBounds" />
          </mxGeometry>
        </mxCell>
        <mxCell id="aKq8IcsFDjsxGVP1KrST-24" value="Diminuição de Restrição de Janela de tempo" style="shape=table;startSize=30;container=1;collapsible=0;childLayout=tableLayout;fixedRows=1;rowLines=0;fontStyle=0;strokeColor=default;fontSize=16;" vertex="1" parent="1">
          <mxGeometry x="650" y="-1700" width="330" height="120" as="geometry" />
        </mxCell>
        <mxCell id="aKq8IcsFDjsxGVP1KrST-25" value="" style="shape=tableRow;horizontal=0;startSize=0;swimlaneHead=0;swimlaneBody=0;top=0;left=0;bottom=0;right=0;collapsible=0;dropTarget=0;fillColor=none;points=[[0,0.5],[1,0.5]];portConstraint=eastwest;strokeColor=inherit;fontSize=16;" vertex="1" parent="aKq8IcsFDjsxGVP1KrST-24">
          <mxGeometry y="30" width="330" height="30" as="geometry" />
        </mxCell>
        <mxCell id="aKq8IcsFDjsxGVP1KrST-26" value="1" style="shape=partialRectangle;html=1;whiteSpace=wrap;connectable=0;fillColor=none;top=0;left=0;bottom=0;right=0;overflow=hidden;pointerEvents=1;strokeColor=inherit;fontSize=16;" vertex="1" parent="aKq8IcsFDjsxGVP1KrST-25">
          <mxGeometry width="74" height="30" as="geometry">
            <mxRectangle width="74" height="30" as="alternateBounds" />
          </mxGeometry>
        </mxCell>
        <mxCell id="aKq8IcsFDjsxGVP1KrST-27" value="Indivíduo 2" style="shape=partialRectangle;html=1;whiteSpace=wrap;connectable=0;fillColor=none;top=0;left=0;bottom=0;right=0;align=left;spacingLeft=6;overflow=hidden;strokeColor=inherit;fontSize=16;" vertex="1" parent="aKq8IcsFDjsxGVP1KrST-25">
          <mxGeometry x="74" width="256" height="30" as="geometry">
            <mxRectangle width="256" height="30" as="alternateBounds" />
          </mxGeometry>
        </mxCell>
        <mxCell id="aKq8IcsFDjsxGVP1KrST-28" value="" style="shape=tableRow;horizontal=0;startSize=0;swimlaneHead=0;swimlaneBody=0;top=0;left=0;bottom=0;right=0;collapsible=0;dropTarget=0;fillColor=none;points=[[0,0.5],[1,0.5]];portConstraint=eastwest;strokeColor=inherit;fontSize=16;" vertex="1" parent="aKq8IcsFDjsxGVP1KrST-24">
          <mxGeometry y="60" width="330" height="30" as="geometry" />
        </mxCell>
        <mxCell id="aKq8IcsFDjsxGVP1KrST-29" value="2" style="shape=partialRectangle;html=1;whiteSpace=wrap;connectable=0;fillColor=none;top=0;left=0;bottom=0;right=0;overflow=hidden;strokeColor=inherit;fontSize=16;" vertex="1" parent="aKq8IcsFDjsxGVP1KrST-28">
          <mxGeometry width="74" height="30" as="geometry">
            <mxRectangle width="74" height="30" as="alternateBounds" />
          </mxGeometry>
        </mxCell>
        <mxCell id="aKq8IcsFDjsxGVP1KrST-30" value="Indivíduo 5" style="shape=partialRectangle;html=1;whiteSpace=wrap;connectable=0;fillColor=none;top=0;left=0;bottom=0;right=0;align=left;spacingLeft=6;overflow=hidden;strokeColor=inherit;fontSize=16;" vertex="1" parent="aKq8IcsFDjsxGVP1KrST-28">
          <mxGeometry x="74" width="256" height="30" as="geometry">
            <mxRectangle width="256" height="30" as="alternateBounds" />
          </mxGeometry>
        </mxCell>
        <mxCell id="aKq8IcsFDjsxGVP1KrST-31" value="" style="shape=tableRow;horizontal=0;startSize=0;swimlaneHead=0;swimlaneBody=0;top=0;left=0;bottom=0;right=0;collapsible=0;dropTarget=0;fillColor=none;points=[[0,0.5],[1,0.5]];portConstraint=eastwest;strokeColor=inherit;fontSize=16;" vertex="1" parent="aKq8IcsFDjsxGVP1KrST-24">
          <mxGeometry y="90" width="330" height="30" as="geometry" />
        </mxCell>
        <mxCell id="aKq8IcsFDjsxGVP1KrST-32" value="3" style="shape=partialRectangle;html=1;whiteSpace=wrap;connectable=0;fillColor=none;top=0;left=0;bottom=0;right=0;overflow=hidden;strokeColor=inherit;fontSize=16;" vertex="1" parent="aKq8IcsFDjsxGVP1KrST-31">
          <mxGeometry width="74" height="30" as="geometry">
            <mxRectangle width="74" height="30" as="alternateBounds" />
          </mxGeometry>
        </mxCell>
        <mxCell id="aKq8IcsFDjsxGVP1KrST-33" value="Indivíduo 7" style="shape=partialRectangle;html=1;whiteSpace=wrap;connectable=0;fillColor=none;top=0;left=0;bottom=0;right=0;align=left;spacingLeft=6;overflow=hidden;strokeColor=inherit;fontSize=16;" vertex="1" parent="aKq8IcsFDjsxGVP1KrST-31">
          <mxGeometry x="74" width="256" height="30" as="geometry">
            <mxRectangle width="256" height="30" as="alternateBounds" />
          </mxGeometry>
        </mxCell>
        <mxCell id="aKq8IcsFDjsxGVP1KrST-34" value="Diminuição de combustível" style="shape=table;startSize=30;container=1;collapsible=0;childLayout=tableLayout;fixedRows=1;rowLines=0;fontStyle=0;strokeColor=default;fontSize=16;" vertex="1" parent="1">
          <mxGeometry x="1100" y="-1700" width="300" height="120" as="geometry" />
        </mxCell>
        <mxCell id="aKq8IcsFDjsxGVP1KrST-35" value="" style="shape=tableRow;horizontal=0;startSize=0;swimlaneHead=0;swimlaneBody=0;top=0;left=0;bottom=0;right=0;collapsible=0;dropTarget=0;fillColor=none;points=[[0,0.5],[1,0.5]];portConstraint=eastwest;strokeColor=inherit;fontSize=16;" vertex="1" parent="aKq8IcsFDjsxGVP1KrST-34">
          <mxGeometry y="30" width="300" height="30" as="geometry" />
        </mxCell>
        <mxCell id="aKq8IcsFDjsxGVP1KrST-36" value="1" style="shape=partialRectangle;html=1;whiteSpace=wrap;connectable=0;fillColor=none;top=0;left=0;bottom=0;right=0;overflow=hidden;pointerEvents=1;strokeColor=inherit;fontSize=16;" vertex="1" parent="aKq8IcsFDjsxGVP1KrST-35">
          <mxGeometry width="67" height="30" as="geometry">
            <mxRectangle width="67" height="30" as="alternateBounds" />
          </mxGeometry>
        </mxCell>
        <mxCell id="aKq8IcsFDjsxGVP1KrST-37" value="Indivíduo 3" style="shape=partialRectangle;html=1;whiteSpace=wrap;connectable=0;fillColor=none;top=0;left=0;bottom=0;right=0;align=left;spacingLeft=6;overflow=hidden;strokeColor=inherit;fontSize=16;" vertex="1" parent="aKq8IcsFDjsxGVP1KrST-35">
          <mxGeometry x="67" width="233" height="30" as="geometry">
            <mxRectangle width="233" height="30" as="alternateBounds" />
          </mxGeometry>
        </mxCell>
        <mxCell id="aKq8IcsFDjsxGVP1KrST-38" value="" style="shape=tableRow;horizontal=0;startSize=0;swimlaneHead=0;swimlaneBody=0;top=0;left=0;bottom=0;right=0;collapsible=0;dropTarget=0;fillColor=none;points=[[0,0.5],[1,0.5]];portConstraint=eastwest;strokeColor=inherit;fontSize=16;" vertex="1" parent="aKq8IcsFDjsxGVP1KrST-34">
          <mxGeometry y="60" width="300" height="30" as="geometry" />
        </mxCell>
        <mxCell id="aKq8IcsFDjsxGVP1KrST-39" value="2" style="shape=partialRectangle;html=1;whiteSpace=wrap;connectable=0;fillColor=none;top=0;left=0;bottom=0;right=0;overflow=hidden;strokeColor=inherit;fontSize=16;" vertex="1" parent="aKq8IcsFDjsxGVP1KrST-38">
          <mxGeometry width="67" height="30" as="geometry">
            <mxRectangle width="67" height="30" as="alternateBounds" />
          </mxGeometry>
        </mxCell>
        <mxCell id="aKq8IcsFDjsxGVP1KrST-40" value="Indivíduo 8" style="shape=partialRectangle;html=1;whiteSpace=wrap;connectable=0;fillColor=none;top=0;left=0;bottom=0;right=0;align=left;spacingLeft=6;overflow=hidden;strokeColor=inherit;fontSize=16;" vertex="1" parent="aKq8IcsFDjsxGVP1KrST-38">
          <mxGeometry x="67" width="233" height="30" as="geometry">
            <mxRectangle width="233" height="30" as="alternateBounds" />
          </mxGeometry>
        </mxCell>
        <mxCell id="aKq8IcsFDjsxGVP1KrST-41" value="" style="shape=tableRow;horizontal=0;startSize=0;swimlaneHead=0;swimlaneBody=0;top=0;left=0;bottom=0;right=0;collapsible=0;dropTarget=0;fillColor=none;points=[[0,0.5],[1,0.5]];portConstraint=eastwest;strokeColor=inherit;fontSize=16;" vertex="1" parent="aKq8IcsFDjsxGVP1KrST-34">
          <mxGeometry y="90" width="300" height="30" as="geometry" />
        </mxCell>
        <mxCell id="aKq8IcsFDjsxGVP1KrST-42" value="3" style="shape=partialRectangle;html=1;whiteSpace=wrap;connectable=0;fillColor=none;top=0;left=0;bottom=0;right=0;overflow=hidden;strokeColor=inherit;fontSize=16;" vertex="1" parent="aKq8IcsFDjsxGVP1KrST-41">
          <mxGeometry width="67" height="30" as="geometry">
            <mxRectangle width="67" height="30" as="alternateBounds" />
          </mxGeometry>
        </mxCell>
        <mxCell id="aKq8IcsFDjsxGVP1KrST-43" value="Indivíduo 9" style="shape=partialRectangle;html=1;whiteSpace=wrap;connectable=0;fillColor=none;top=0;left=0;bottom=0;right=0;align=left;spacingLeft=6;overflow=hidden;strokeColor=inherit;fontSize=16;" vertex="1" parent="aKq8IcsFDjsxGVP1KrST-41">
          <mxGeometry x="67" width="233" height="30" as="geometry">
            <mxRectangle width="233" height="30" as="alternateBounds" />
          </mxGeometry>
        </mxCell>
        <mxCell id="aKq8IcsFDjsxGVP1KrST-47" value="" style="endArrow=none;html=1;rounded=0;exitX=0.5;exitY=0;exitDx=0;exitDy=0;" edge="1" parent="1">
          <mxGeometry width="50" height="50" relative="1" as="geometry">
            <mxPoint x="830" y="-1950" as="sourcePoint" />
            <mxPoint x="830" y="-2040" as="targetPoint" />
          </mxGeometry>
        </mxCell>
        <mxCell id="aKq8IcsFDjsxGVP1KrST-48" value="" style="endArrow=none;html=1;rounded=0;exitX=0.5;exitY=0;exitDx=0;exitDy=0;" edge="1" parent="1">
          <mxGeometry width="50" height="50" relative="1" as="geometry">
            <mxPoint x="829.4100000000001" y="-1760" as="sourcePoint" />
            <mxPoint x="830" y="-1850" as="targetPoint" />
          </mxGeometry>
        </mxCell>
        <mxCell id="aKq8IcsFDjsxGVP1KrST-49" value="" style="endArrow=none;html=1;rounded=0;" edge="1" parent="1">
          <mxGeometry width="50" height="50" relative="1" as="geometry">
            <mxPoint x="440" y="-1760" as="sourcePoint" />
            <mxPoint x="830" y="-1760" as="targetPoint" />
          </mxGeometry>
        </mxCell>
        <mxCell id="aKq8IcsFDjsxGVP1KrST-50" value="" style="endArrow=none;html=1;rounded=0;" edge="1" parent="1">
          <mxGeometry width="50" height="50" relative="1" as="geometry">
            <mxPoint x="827" y="-1760" as="sourcePoint" />
            <mxPoint x="1217" y="-1760" as="targetPoint" />
          </mxGeometry>
        </mxCell>
        <mxCell id="aKq8IcsFDjsxGVP1KrST-51" value="" style="endArrow=none;html=1;rounded=0;exitX=0.611;exitY=0.014;exitDx=0;exitDy=0;exitPerimeter=0;" edge="1" parent="1" source="aKq8IcsFDjsxGVP1KrST-14">
          <mxGeometry width="50" height="50" relative="1" as="geometry">
            <mxPoint x="380" y="-1703" as="sourcePoint" />
            <mxPoint x="440" y="-1760" as="targetPoint" />
          </mxGeometry>
        </mxCell>
        <mxCell id="aKq8IcsFDjsxGVP1KrST-53" value="" style="endArrow=none;html=1;rounded=0;exitX=0.611;exitY=0.014;exitDx=0;exitDy=0;exitPerimeter=0;" edge="1" parent="1">
          <mxGeometry width="50" height="50" relative="1" as="geometry">
            <mxPoint x="829.4100000000001" y="-1700" as="sourcePoint" />
            <mxPoint x="829.4100000000001" y="-1762" as="targetPoint" />
          </mxGeometry>
        </mxCell>
        <mxCell id="aKq8IcsFDjsxGVP1KrST-54" value="" style="endArrow=none;html=1;rounded=0;exitX=0.611;exitY=0.014;exitDx=0;exitDy=0;exitPerimeter=0;" edge="1" parent="1">
          <mxGeometry width="50" height="50" relative="1" as="geometry">
            <mxPoint x="1220" y="-1700" as="sourcePoint" />
            <mxPoint x="1220" y="-1762" as="targetPoint" />
          </mxGeometry>
        </mxCell>
        <mxCell id="aKq8IcsFDjsxGVP1KrST-55" value="População Inicial" style="shape=table;startSize=30;container=1;collapsible=0;childLayout=tableLayout;strokeColor=default;fontSize=16;" vertex="1" parent="1">
          <mxGeometry x="-490" y="-2300" width="480" height="260" as="geometry" />
        </mxCell>
        <mxCell id="aKq8IcsFDjsxGVP1KrST-56" value="" style="shape=tableRow;horizontal=0;startSize=0;swimlaneHead=0;swimlaneBody=0;strokeColor=inherit;top=0;left=0;bottom=0;right=0;collapsible=0;dropTarget=0;fillColor=none;points=[[0,0.5],[1,0.5]];portConstraint=eastwest;fontSize=16;" vertex="1" parent="aKq8IcsFDjsxGVP1KrST-55">
          <mxGeometry y="30" width="480" height="77" as="geometry" />
        </mxCell>
        <mxCell id="aKq8IcsFDjsxGVP1KrST-57" value="Indivíduo 1" style="shape=partialRectangle;html=1;whiteSpace=wrap;connectable=0;strokeColor=inherit;overflow=hidden;fillColor=none;top=0;left=0;bottom=0;right=0;pointerEvents=1;fontSize=16;" vertex="1" parent="aKq8IcsFDjsxGVP1KrST-56">
          <mxGeometry width="160" height="77" as="geometry">
            <mxRectangle width="160" height="77" as="alternateBounds" />
          </mxGeometry>
        </mxCell>
        <mxCell id="aKq8IcsFDjsxGVP1KrST-58" value="Indivíduo 2" style="shape=partialRectangle;html=1;whiteSpace=wrap;connectable=0;strokeColor=inherit;overflow=hidden;fillColor=none;top=0;left=0;bottom=0;right=0;pointerEvents=1;fontSize=16;" vertex="1" parent="aKq8IcsFDjsxGVP1KrST-56">
          <mxGeometry x="160" width="160" height="77" as="geometry">
            <mxRectangle width="160" height="77" as="alternateBounds" />
          </mxGeometry>
        </mxCell>
        <mxCell id="aKq8IcsFDjsxGVP1KrST-59" value="Indivíduo 3" style="shape=partialRectangle;html=1;whiteSpace=wrap;connectable=0;strokeColor=inherit;overflow=hidden;fillColor=none;top=0;left=0;bottom=0;right=0;pointerEvents=1;fontSize=16;" vertex="1" parent="aKq8IcsFDjsxGVP1KrST-56">
          <mxGeometry x="320" width="160" height="77" as="geometry">
            <mxRectangle width="160" height="77" as="alternateBounds" />
          </mxGeometry>
        </mxCell>
        <mxCell id="aKq8IcsFDjsxGVP1KrST-60" value="" style="shape=tableRow;horizontal=0;startSize=0;swimlaneHead=0;swimlaneBody=0;strokeColor=inherit;top=0;left=0;bottom=0;right=0;collapsible=0;dropTarget=0;fillColor=none;points=[[0,0.5],[1,0.5]];portConstraint=eastwest;fontSize=16;" vertex="1" parent="aKq8IcsFDjsxGVP1KrST-55">
          <mxGeometry y="107" width="480" height="76" as="geometry" />
        </mxCell>
        <mxCell id="aKq8IcsFDjsxGVP1KrST-61" value="Indivíduo 4" style="shape=partialRectangle;html=1;whiteSpace=wrap;connectable=0;strokeColor=inherit;overflow=hidden;fillColor=none;top=0;left=0;bottom=0;right=0;pointerEvents=1;fontSize=16;" vertex="1" parent="aKq8IcsFDjsxGVP1KrST-60">
          <mxGeometry width="160" height="76" as="geometry">
            <mxRectangle width="160" height="76" as="alternateBounds" />
          </mxGeometry>
        </mxCell>
        <mxCell id="aKq8IcsFDjsxGVP1KrST-62" value="Indivíduo 5" style="shape=partialRectangle;html=1;whiteSpace=wrap;connectable=0;strokeColor=inherit;overflow=hidden;fillColor=none;top=0;left=0;bottom=0;right=0;pointerEvents=1;fontSize=16;" vertex="1" parent="aKq8IcsFDjsxGVP1KrST-60">
          <mxGeometry x="160" width="160" height="76" as="geometry">
            <mxRectangle width="160" height="76" as="alternateBounds" />
          </mxGeometry>
        </mxCell>
        <mxCell id="aKq8IcsFDjsxGVP1KrST-63" value="Indivíduo 6" style="shape=partialRectangle;html=1;whiteSpace=wrap;connectable=0;strokeColor=inherit;overflow=hidden;fillColor=none;top=0;left=0;bottom=0;right=0;pointerEvents=1;fontSize=16;" vertex="1" parent="aKq8IcsFDjsxGVP1KrST-60">
          <mxGeometry x="320" width="160" height="76" as="geometry">
            <mxRectangle width="160" height="76" as="alternateBounds" />
          </mxGeometry>
        </mxCell>
        <mxCell id="aKq8IcsFDjsxGVP1KrST-64" value="" style="shape=tableRow;horizontal=0;startSize=0;swimlaneHead=0;swimlaneBody=0;strokeColor=inherit;top=0;left=0;bottom=0;right=0;collapsible=0;dropTarget=0;fillColor=none;points=[[0,0.5],[1,0.5]];portConstraint=eastwest;fontSize=16;" vertex="1" parent="aKq8IcsFDjsxGVP1KrST-55">
          <mxGeometry y="183" width="480" height="77" as="geometry" />
        </mxCell>
        <mxCell id="aKq8IcsFDjsxGVP1KrST-65" value="Indivíduo 7" style="shape=partialRectangle;html=1;whiteSpace=wrap;connectable=0;strokeColor=inherit;overflow=hidden;fillColor=none;top=0;left=0;bottom=0;right=0;pointerEvents=1;fontSize=16;" vertex="1" parent="aKq8IcsFDjsxGVP1KrST-64">
          <mxGeometry width="160" height="77" as="geometry">
            <mxRectangle width="160" height="77" as="alternateBounds" />
          </mxGeometry>
        </mxCell>
        <mxCell id="aKq8IcsFDjsxGVP1KrST-66" value="Indivíduo 8" style="shape=partialRectangle;html=1;whiteSpace=wrap;connectable=0;strokeColor=inherit;overflow=hidden;fillColor=none;top=0;left=0;bottom=0;right=0;pointerEvents=1;fontSize=16;" vertex="1" parent="aKq8IcsFDjsxGVP1KrST-64">
          <mxGeometry x="160" width="160" height="77" as="geometry">
            <mxRectangle width="160" height="77" as="alternateBounds" />
          </mxGeometry>
        </mxCell>
        <mxCell id="aKq8IcsFDjsxGVP1KrST-67" value="Indivíduo 9" style="shape=partialRectangle;html=1;whiteSpace=wrap;connectable=0;strokeColor=inherit;overflow=hidden;fillColor=none;top=0;left=0;bottom=0;right=0;pointerEvents=1;fontSize=16;" vertex="1" parent="aKq8IcsFDjsxGVP1KrST-64">
          <mxGeometry x="320" width="160" height="77" as="geometry">
            <mxRectangle width="160" height="77" as="alternateBounds" />
          </mxGeometry>
        </mxCell>
        <mxCell id="aKq8IcsFDjsxGVP1KrST-78" value="População" style="shape=table;startSize=30;container=1;collapsible=0;childLayout=tableLayout;fixedRows=1;rowLines=0;fontStyle=0;strokeColor=default;fontSize=16;" vertex="1" parent="1">
          <mxGeometry x="-340" y="-1880" width="180" height="300" as="geometry" />
        </mxCell>
        <mxCell id="aKq8IcsFDjsxGVP1KrST-79" value="" style="shape=tableRow;horizontal=0;startSize=0;swimlaneHead=0;swimlaneBody=0;top=0;left=0;bottom=0;right=0;collapsible=0;dropTarget=0;fillColor=none;points=[[0,0.5],[1,0.5]];portConstraint=eastwest;strokeColor=inherit;fontSize=16;" vertex="1" parent="aKq8IcsFDjsxGVP1KrST-78">
          <mxGeometry y="30" width="180" height="30" as="geometry" />
        </mxCell>
        <mxCell id="aKq8IcsFDjsxGVP1KrST-80" value="1" style="shape=partialRectangle;html=1;whiteSpace=wrap;connectable=0;fillColor=none;top=0;left=0;bottom=0;right=0;overflow=hidden;pointerEvents=1;strokeColor=inherit;fontSize=16;" vertex="1" parent="aKq8IcsFDjsxGVP1KrST-79">
          <mxGeometry width="40" height="30" as="geometry">
            <mxRectangle width="40" height="30" as="alternateBounds" />
          </mxGeometry>
        </mxCell>
        <mxCell id="aKq8IcsFDjsxGVP1KrST-81" value="Indivíduo 1" style="shape=partialRectangle;html=1;whiteSpace=wrap;connectable=0;fillColor=none;top=0;left=0;bottom=0;right=0;align=left;spacingLeft=6;overflow=hidden;strokeColor=inherit;fontSize=16;" vertex="1" parent="aKq8IcsFDjsxGVP1KrST-79">
          <mxGeometry x="40" width="140" height="30" as="geometry">
            <mxRectangle width="140" height="30" as="alternateBounds" />
          </mxGeometry>
        </mxCell>
        <mxCell id="aKq8IcsFDjsxGVP1KrST-82" value="" style="shape=tableRow;horizontal=0;startSize=0;swimlaneHead=0;swimlaneBody=0;top=0;left=0;bottom=0;right=0;collapsible=0;dropTarget=0;fillColor=none;points=[[0,0.5],[1,0.5]];portConstraint=eastwest;strokeColor=inherit;fontSize=16;" vertex="1" parent="aKq8IcsFDjsxGVP1KrST-78">
          <mxGeometry y="60" width="180" height="30" as="geometry" />
        </mxCell>
        <mxCell id="aKq8IcsFDjsxGVP1KrST-83" value="2" style="shape=partialRectangle;html=1;whiteSpace=wrap;connectable=0;fillColor=none;top=0;left=0;bottom=0;right=0;overflow=hidden;strokeColor=inherit;fontSize=16;" vertex="1" parent="aKq8IcsFDjsxGVP1KrST-82">
          <mxGeometry width="40" height="30" as="geometry">
            <mxRectangle width="40" height="30" as="alternateBounds" />
          </mxGeometry>
        </mxCell>
        <mxCell id="aKq8IcsFDjsxGVP1KrST-84" value="Indivíduo 2" style="shape=partialRectangle;html=1;whiteSpace=wrap;connectable=0;fillColor=none;top=0;left=0;bottom=0;right=0;align=left;spacingLeft=6;overflow=hidden;strokeColor=inherit;fontSize=16;" vertex="1" parent="aKq8IcsFDjsxGVP1KrST-82">
          <mxGeometry x="40" width="140" height="30" as="geometry">
            <mxRectangle width="140" height="30" as="alternateBounds" />
          </mxGeometry>
        </mxCell>
        <mxCell id="aKq8IcsFDjsxGVP1KrST-85" value="" style="shape=tableRow;horizontal=0;startSize=0;swimlaneHead=0;swimlaneBody=0;top=0;left=0;bottom=0;right=0;collapsible=0;dropTarget=0;fillColor=none;points=[[0,0.5],[1,0.5]];portConstraint=eastwest;strokeColor=inherit;fontSize=16;" vertex="1" parent="aKq8IcsFDjsxGVP1KrST-78">
          <mxGeometry y="90" width="180" height="30" as="geometry" />
        </mxCell>
        <mxCell id="aKq8IcsFDjsxGVP1KrST-86" value="3" style="shape=partialRectangle;html=1;whiteSpace=wrap;connectable=0;fillColor=none;top=0;left=0;bottom=0;right=0;overflow=hidden;strokeColor=inherit;fontSize=16;" vertex="1" parent="aKq8IcsFDjsxGVP1KrST-85">
          <mxGeometry width="40" height="30" as="geometry">
            <mxRectangle width="40" height="30" as="alternateBounds" />
          </mxGeometry>
        </mxCell>
        <mxCell id="aKq8IcsFDjsxGVP1KrST-87" value="Indivíduo 3" style="shape=partialRectangle;html=1;whiteSpace=wrap;connectable=0;fillColor=none;top=0;left=0;bottom=0;right=0;align=left;spacingLeft=6;overflow=hidden;strokeColor=inherit;fontSize=16;" vertex="1" parent="aKq8IcsFDjsxGVP1KrST-85">
          <mxGeometry x="40" width="140" height="30" as="geometry">
            <mxRectangle width="140" height="30" as="alternateBounds" />
          </mxGeometry>
        </mxCell>
        <mxCell id="aKq8IcsFDjsxGVP1KrST-88" style="shape=tableRow;horizontal=0;startSize=0;swimlaneHead=0;swimlaneBody=0;top=0;left=0;bottom=0;right=0;collapsible=0;dropTarget=0;fillColor=none;points=[[0,0.5],[1,0.5]];portConstraint=eastwest;strokeColor=inherit;fontSize=16;" vertex="1" parent="aKq8IcsFDjsxGVP1KrST-78">
          <mxGeometry y="120" width="180" height="30" as="geometry" />
        </mxCell>
        <mxCell id="aKq8IcsFDjsxGVP1KrST-89" value="4" style="shape=partialRectangle;html=1;whiteSpace=wrap;connectable=0;fillColor=none;top=0;left=0;bottom=0;right=0;overflow=hidden;strokeColor=inherit;fontSize=16;" vertex="1" parent="aKq8IcsFDjsxGVP1KrST-88">
          <mxGeometry width="40" height="30" as="geometry">
            <mxRectangle width="40" height="30" as="alternateBounds" />
          </mxGeometry>
        </mxCell>
        <mxCell id="aKq8IcsFDjsxGVP1KrST-90" value="Indivíduo 4" style="shape=partialRectangle;html=1;whiteSpace=wrap;connectable=0;fillColor=none;top=0;left=0;bottom=0;right=0;align=left;spacingLeft=6;overflow=hidden;strokeColor=inherit;fontSize=16;" vertex="1" parent="aKq8IcsFDjsxGVP1KrST-88">
          <mxGeometry x="40" width="140" height="30" as="geometry">
            <mxRectangle width="140" height="30" as="alternateBounds" />
          </mxGeometry>
        </mxCell>
        <mxCell id="aKq8IcsFDjsxGVP1KrST-91" style="shape=tableRow;horizontal=0;startSize=0;swimlaneHead=0;swimlaneBody=0;top=0;left=0;bottom=0;right=0;collapsible=0;dropTarget=0;fillColor=none;points=[[0,0.5],[1,0.5]];portConstraint=eastwest;strokeColor=inherit;fontSize=16;" vertex="1" parent="aKq8IcsFDjsxGVP1KrST-78">
          <mxGeometry y="150" width="180" height="30" as="geometry" />
        </mxCell>
        <mxCell id="aKq8IcsFDjsxGVP1KrST-92" value="5" style="shape=partialRectangle;html=1;whiteSpace=wrap;connectable=0;fillColor=none;top=0;left=0;bottom=0;right=0;overflow=hidden;strokeColor=inherit;fontSize=16;" vertex="1" parent="aKq8IcsFDjsxGVP1KrST-91">
          <mxGeometry width="40" height="30" as="geometry">
            <mxRectangle width="40" height="30" as="alternateBounds" />
          </mxGeometry>
        </mxCell>
        <mxCell id="aKq8IcsFDjsxGVP1KrST-93" value="&lt;span style=&quot;color: rgb(0, 0, 0); font-family: Helvetica; font-size: 16px; font-style: normal; font-variant-ligatures: normal; font-variant-caps: normal; font-weight: 400; letter-spacing: normal; orphans: 2; text-align: left; text-indent: 0px; text-transform: none; widows: 2; word-spacing: 0px; -webkit-text-stroke-width: 0px; white-space: normal; background-color: rgb(251, 251, 251); text-decoration-thickness: initial; text-decoration-style: initial; text-decoration-color: initial; display: inline !important; float: none;&quot;&gt;Indivíduo 5&lt;/span&gt;" style="shape=partialRectangle;html=1;whiteSpace=wrap;connectable=0;fillColor=none;top=0;left=0;bottom=0;right=0;align=left;spacingLeft=6;overflow=hidden;strokeColor=inherit;fontSize=16;" vertex="1" parent="aKq8IcsFDjsxGVP1KrST-91">
          <mxGeometry x="40" width="140" height="30" as="geometry">
            <mxRectangle width="140" height="30" as="alternateBounds" />
          </mxGeometry>
        </mxCell>
        <mxCell id="aKq8IcsFDjsxGVP1KrST-94" style="shape=tableRow;horizontal=0;startSize=0;swimlaneHead=0;swimlaneBody=0;top=0;left=0;bottom=0;right=0;collapsible=0;dropTarget=0;fillColor=none;points=[[0,0.5],[1,0.5]];portConstraint=eastwest;strokeColor=inherit;fontSize=16;" vertex="1" parent="aKq8IcsFDjsxGVP1KrST-78">
          <mxGeometry y="180" width="180" height="30" as="geometry" />
        </mxCell>
        <mxCell id="aKq8IcsFDjsxGVP1KrST-95" value="6" style="shape=partialRectangle;html=1;whiteSpace=wrap;connectable=0;fillColor=none;top=0;left=0;bottom=0;right=0;overflow=hidden;strokeColor=inherit;fontSize=16;" vertex="1" parent="aKq8IcsFDjsxGVP1KrST-94">
          <mxGeometry width="40" height="30" as="geometry">
            <mxRectangle width="40" height="30" as="alternateBounds" />
          </mxGeometry>
        </mxCell>
        <mxCell id="aKq8IcsFDjsxGVP1KrST-96" value="&lt;span style=&quot;color: rgb(0, 0, 0); font-family: Helvetica; font-size: 16px; font-style: normal; font-variant-ligatures: normal; font-variant-caps: normal; font-weight: 400; letter-spacing: normal; orphans: 2; text-align: left; text-indent: 0px; text-transform: none; widows: 2; word-spacing: 0px; -webkit-text-stroke-width: 0px; white-space: normal; background-color: rgb(251, 251, 251); text-decoration-thickness: initial; text-decoration-style: initial; text-decoration-color: initial; display: inline !important; float: none;&quot;&gt;Indivíduo 6&lt;/span&gt;" style="shape=partialRectangle;html=1;whiteSpace=wrap;connectable=0;fillColor=none;top=0;left=0;bottom=0;right=0;align=left;spacingLeft=6;overflow=hidden;strokeColor=inherit;fontSize=16;" vertex="1" parent="aKq8IcsFDjsxGVP1KrST-94">
          <mxGeometry x="40" width="140" height="30" as="geometry">
            <mxRectangle width="140" height="30" as="alternateBounds" />
          </mxGeometry>
        </mxCell>
        <mxCell id="aKq8IcsFDjsxGVP1KrST-97" style="shape=tableRow;horizontal=0;startSize=0;swimlaneHead=0;swimlaneBody=0;top=0;left=0;bottom=0;right=0;collapsible=0;dropTarget=0;fillColor=none;points=[[0,0.5],[1,0.5]];portConstraint=eastwest;strokeColor=inherit;fontSize=16;" vertex="1" parent="aKq8IcsFDjsxGVP1KrST-78">
          <mxGeometry y="210" width="180" height="30" as="geometry" />
        </mxCell>
        <mxCell id="aKq8IcsFDjsxGVP1KrST-98" value="7" style="shape=partialRectangle;html=1;whiteSpace=wrap;connectable=0;fillColor=none;top=0;left=0;bottom=0;right=0;overflow=hidden;strokeColor=inherit;fontSize=16;" vertex="1" parent="aKq8IcsFDjsxGVP1KrST-97">
          <mxGeometry width="40" height="30" as="geometry">
            <mxRectangle width="40" height="30" as="alternateBounds" />
          </mxGeometry>
        </mxCell>
        <mxCell id="aKq8IcsFDjsxGVP1KrST-99" value="&lt;span style=&quot;color: rgb(0, 0, 0); font-family: Helvetica; font-size: 16px; font-style: normal; font-variant-ligatures: normal; font-variant-caps: normal; font-weight: 400; letter-spacing: normal; orphans: 2; text-align: left; text-indent: 0px; text-transform: none; widows: 2; word-spacing: 0px; -webkit-text-stroke-width: 0px; white-space: normal; background-color: rgb(251, 251, 251); text-decoration-thickness: initial; text-decoration-style: initial; text-decoration-color: initial; display: inline !important; float: none;&quot;&gt;Indivíduo 7&lt;/span&gt;" style="shape=partialRectangle;html=1;whiteSpace=wrap;connectable=0;fillColor=none;top=0;left=0;bottom=0;right=0;align=left;spacingLeft=6;overflow=hidden;strokeColor=inherit;fontSize=16;" vertex="1" parent="aKq8IcsFDjsxGVP1KrST-97">
          <mxGeometry x="40" width="140" height="30" as="geometry">
            <mxRectangle width="140" height="30" as="alternateBounds" />
          </mxGeometry>
        </mxCell>
        <mxCell id="aKq8IcsFDjsxGVP1KrST-100" style="shape=tableRow;horizontal=0;startSize=0;swimlaneHead=0;swimlaneBody=0;top=0;left=0;bottom=0;right=0;collapsible=0;dropTarget=0;fillColor=none;points=[[0,0.5],[1,0.5]];portConstraint=eastwest;strokeColor=inherit;fontSize=16;" vertex="1" parent="aKq8IcsFDjsxGVP1KrST-78">
          <mxGeometry y="240" width="180" height="30" as="geometry" />
        </mxCell>
        <mxCell id="aKq8IcsFDjsxGVP1KrST-101" value="8" style="shape=partialRectangle;html=1;whiteSpace=wrap;connectable=0;fillColor=none;top=0;left=0;bottom=0;right=0;overflow=hidden;strokeColor=inherit;fontSize=16;" vertex="1" parent="aKq8IcsFDjsxGVP1KrST-100">
          <mxGeometry width="40" height="30" as="geometry">
            <mxRectangle width="40" height="30" as="alternateBounds" />
          </mxGeometry>
        </mxCell>
        <mxCell id="aKq8IcsFDjsxGVP1KrST-102" value="&lt;span style=&quot;color: rgb(0, 0, 0); font-family: Helvetica; font-size: 16px; font-style: normal; font-variant-ligatures: normal; font-variant-caps: normal; font-weight: 400; letter-spacing: normal; orphans: 2; text-align: left; text-indent: 0px; text-transform: none; widows: 2; word-spacing: 0px; -webkit-text-stroke-width: 0px; white-space: normal; background-color: rgb(251, 251, 251); text-decoration-thickness: initial; text-decoration-style: initial; text-decoration-color: initial; display: inline !important; float: none;&quot;&gt;Indivíduo 8&lt;/span&gt;" style="shape=partialRectangle;html=1;whiteSpace=wrap;connectable=0;fillColor=none;top=0;left=0;bottom=0;right=0;align=left;spacingLeft=6;overflow=hidden;strokeColor=inherit;fontSize=16;" vertex="1" parent="aKq8IcsFDjsxGVP1KrST-100">
          <mxGeometry x="40" width="140" height="30" as="geometry">
            <mxRectangle width="140" height="30" as="alternateBounds" />
          </mxGeometry>
        </mxCell>
        <mxCell id="aKq8IcsFDjsxGVP1KrST-103" style="shape=tableRow;horizontal=0;startSize=0;swimlaneHead=0;swimlaneBody=0;top=0;left=0;bottom=0;right=0;collapsible=0;dropTarget=0;fillColor=none;points=[[0,0.5],[1,0.5]];portConstraint=eastwest;strokeColor=inherit;fontSize=16;" vertex="1" parent="aKq8IcsFDjsxGVP1KrST-78">
          <mxGeometry y="270" width="180" height="30" as="geometry" />
        </mxCell>
        <mxCell id="aKq8IcsFDjsxGVP1KrST-104" value="9" style="shape=partialRectangle;html=1;whiteSpace=wrap;connectable=0;fillColor=none;top=0;left=0;bottom=0;right=0;overflow=hidden;strokeColor=inherit;fontSize=16;" vertex="1" parent="aKq8IcsFDjsxGVP1KrST-103">
          <mxGeometry width="40" height="30" as="geometry">
            <mxRectangle width="40" height="30" as="alternateBounds" />
          </mxGeometry>
        </mxCell>
        <mxCell id="aKq8IcsFDjsxGVP1KrST-105" value="&lt;span style=&quot;color: rgb(0, 0, 0); font-family: Helvetica; font-size: 16px; font-style: normal; font-variant-ligatures: normal; font-variant-caps: normal; font-weight: 400; letter-spacing: normal; orphans: 2; text-align: left; text-indent: 0px; text-transform: none; widows: 2; word-spacing: 0px; -webkit-text-stroke-width: 0px; white-space: normal; background-color: rgb(251, 251, 251); text-decoration-thickness: initial; text-decoration-style: initial; text-decoration-color: initial; display: inline !important; float: none;&quot;&gt;Indivíduo 9&lt;/span&gt;" style="shape=partialRectangle;html=1;whiteSpace=wrap;connectable=0;fillColor=none;top=0;left=0;bottom=0;right=0;align=left;spacingLeft=6;overflow=hidden;strokeColor=inherit;fontSize=16;" vertex="1" parent="aKq8IcsFDjsxGVP1KrST-103">
          <mxGeometry x="40" width="140" height="30" as="geometry">
            <mxRectangle width="140" height="30" as="alternateBounds" />
          </mxGeometry>
        </mxCell>
        <mxCell id="aKq8IcsFDjsxGVP1KrST-106" value="" style="endArrow=none;html=1;rounded=0;exitX=0.5;exitY=0;exitDx=0;exitDy=0;" edge="1" parent="1" source="aKq8IcsFDjsxGVP1KrST-78">
          <mxGeometry width="50" height="50" relative="1" as="geometry">
            <mxPoint x="-250.58999999999992" y="-1930" as="sourcePoint" />
            <mxPoint x="-250.58999999999992" y="-2040" as="targetPoint" />
          </mxGeometry>
        </mxCell>
        <mxCell id="aKq8IcsFDjsxGVP1KrST-107" value="" style="endArrow=none;html=1;rounded=0;" edge="1" parent="1">
          <mxGeometry width="50" height="50" relative="1" as="geometry">
            <mxPoint x="-251" y="-1520" as="sourcePoint" />
            <mxPoint x="-250.58999999999992" y="-1580" as="targetPoint" />
          </mxGeometry>
        </mxCell>
        <mxCell id="aKq8IcsFDjsxGVP1KrST-139" value="Indivíduos para cruzamento" style="shape=table;startSize=30;container=1;collapsible=0;childLayout=tableLayout;fixedRows=1;rowLines=0;fontStyle=0;strokeColor=default;fontSize=16;" vertex="1" parent="1">
          <mxGeometry x="-380" y="-1340" width="260" height="90" as="geometry" />
        </mxCell>
        <mxCell id="aKq8IcsFDjsxGVP1KrST-140" value="" style="shape=tableRow;horizontal=0;startSize=0;swimlaneHead=0;swimlaneBody=0;top=0;left=0;bottom=0;right=0;collapsible=0;dropTarget=0;fillColor=none;points=[[0,0.5],[1,0.5]];portConstraint=eastwest;strokeColor=inherit;fontSize=16;" vertex="1" parent="aKq8IcsFDjsxGVP1KrST-139">
          <mxGeometry y="30" width="260" height="30" as="geometry" />
        </mxCell>
        <mxCell id="aKq8IcsFDjsxGVP1KrST-141" value="1" style="shape=partialRectangle;html=1;whiteSpace=wrap;connectable=0;fillColor=none;top=0;left=0;bottom=0;right=0;overflow=hidden;pointerEvents=1;strokeColor=inherit;fontSize=16;" vertex="1" parent="aKq8IcsFDjsxGVP1KrST-140">
          <mxGeometry width="58" height="30" as="geometry">
            <mxRectangle width="58" height="30" as="alternateBounds" />
          </mxGeometry>
        </mxCell>
        <mxCell id="aKq8IcsFDjsxGVP1KrST-142" value="Indivíduo 1" style="shape=partialRectangle;html=1;whiteSpace=wrap;connectable=0;fillColor=none;top=0;left=0;bottom=0;right=0;align=left;spacingLeft=6;overflow=hidden;strokeColor=inherit;fontSize=16;" vertex="1" parent="aKq8IcsFDjsxGVP1KrST-140">
          <mxGeometry x="58" width="202" height="30" as="geometry">
            <mxRectangle width="202" height="30" as="alternateBounds" />
          </mxGeometry>
        </mxCell>
        <mxCell id="aKq8IcsFDjsxGVP1KrST-143" value="" style="shape=tableRow;horizontal=0;startSize=0;swimlaneHead=0;swimlaneBody=0;top=0;left=0;bottom=0;right=0;collapsible=0;dropTarget=0;fillColor=none;points=[[0,0.5],[1,0.5]];portConstraint=eastwest;strokeColor=inherit;fontSize=16;" vertex="1" parent="aKq8IcsFDjsxGVP1KrST-139">
          <mxGeometry y="60" width="260" height="30" as="geometry" />
        </mxCell>
        <mxCell id="aKq8IcsFDjsxGVP1KrST-144" value="2" style="shape=partialRectangle;html=1;whiteSpace=wrap;connectable=0;fillColor=none;top=0;left=0;bottom=0;right=0;overflow=hidden;strokeColor=inherit;fontSize=16;" vertex="1" parent="aKq8IcsFDjsxGVP1KrST-143">
          <mxGeometry width="58" height="30" as="geometry">
            <mxRectangle width="58" height="30" as="alternateBounds" />
          </mxGeometry>
        </mxCell>
        <mxCell id="aKq8IcsFDjsxGVP1KrST-145" value="Indivíduo 4" style="shape=partialRectangle;html=1;whiteSpace=wrap;connectable=0;fillColor=none;top=0;left=0;bottom=0;right=0;align=left;spacingLeft=6;overflow=hidden;strokeColor=inherit;fontSize=16;" vertex="1" parent="aKq8IcsFDjsxGVP1KrST-143">
          <mxGeometry x="58" width="202" height="30" as="geometry">
            <mxRectangle width="202" height="30" as="alternateBounds" />
          </mxGeometry>
        </mxCell>
        <mxCell id="aKq8IcsFDjsxGVP1KrST-149" value="" style="endArrow=none;html=1;rounded=0;exitX=0.5;exitY=0;exitDx=0;exitDy=0;" edge="1" parent="1" source="aKq8IcsFDjsxGVP1KrST-201">
          <mxGeometry width="50" height="50" relative="1" as="geometry">
            <mxPoint x="-250" y="-1350" as="sourcePoint" />
            <mxPoint x="-250.6299999999999" y="-1440" as="targetPoint" />
          </mxGeometry>
        </mxCell>
        <mxCell id="aKq8IcsFDjsxGVP1KrST-151" value="Diminuição de Restrição de Janela de tempo" style="shape=table;startSize=30;container=1;collapsible=0;childLayout=tableLayout;fixedRows=1;rowLines=0;fontStyle=0;strokeColor=default;fontSize=16;" vertex="1" parent="1">
          <mxGeometry x="440" y="-1290" width="330" height="120" as="geometry" />
        </mxCell>
        <mxCell id="aKq8IcsFDjsxGVP1KrST-152" value="" style="shape=tableRow;horizontal=0;startSize=0;swimlaneHead=0;swimlaneBody=0;top=0;left=0;bottom=0;right=0;collapsible=0;dropTarget=0;fillColor=none;points=[[0,0.5],[1,0.5]];portConstraint=eastwest;strokeColor=inherit;fontSize=16;" vertex="1" parent="aKq8IcsFDjsxGVP1KrST-151">
          <mxGeometry y="30" width="330" height="30" as="geometry" />
        </mxCell>
        <mxCell id="aKq8IcsFDjsxGVP1KrST-153" value="1" style="shape=partialRectangle;html=1;whiteSpace=wrap;connectable=0;fillColor=none;top=0;left=0;bottom=0;right=0;overflow=hidden;pointerEvents=1;strokeColor=inherit;fontSize=16;" vertex="1" parent="aKq8IcsFDjsxGVP1KrST-152">
          <mxGeometry width="74" height="30" as="geometry">
            <mxRectangle width="74" height="30" as="alternateBounds" />
          </mxGeometry>
        </mxCell>
        <mxCell id="aKq8IcsFDjsxGVP1KrST-154" value="Indivíduo 2" style="shape=partialRectangle;html=1;whiteSpace=wrap;connectable=0;fillColor=none;top=0;left=0;bottom=0;right=0;align=left;spacingLeft=6;overflow=hidden;strokeColor=inherit;fontSize=16;" vertex="1" parent="aKq8IcsFDjsxGVP1KrST-152">
          <mxGeometry x="74" width="256" height="30" as="geometry">
            <mxRectangle width="256" height="30" as="alternateBounds" />
          </mxGeometry>
        </mxCell>
        <mxCell id="aKq8IcsFDjsxGVP1KrST-155" value="" style="shape=tableRow;horizontal=0;startSize=0;swimlaneHead=0;swimlaneBody=0;top=0;left=0;bottom=0;right=0;collapsible=0;dropTarget=0;fillColor=none;points=[[0,0.5],[1,0.5]];portConstraint=eastwest;strokeColor=inherit;fontSize=16;" vertex="1" parent="aKq8IcsFDjsxGVP1KrST-151">
          <mxGeometry y="60" width="330" height="30" as="geometry" />
        </mxCell>
        <mxCell id="aKq8IcsFDjsxGVP1KrST-156" value="2" style="shape=partialRectangle;html=1;whiteSpace=wrap;connectable=0;fillColor=none;top=0;left=0;bottom=0;right=0;overflow=hidden;strokeColor=inherit;fontSize=16;" vertex="1" parent="aKq8IcsFDjsxGVP1KrST-155">
          <mxGeometry width="74" height="30" as="geometry">
            <mxRectangle width="74" height="30" as="alternateBounds" />
          </mxGeometry>
        </mxCell>
        <mxCell id="aKq8IcsFDjsxGVP1KrST-157" value="Indivíduo 5" style="shape=partialRectangle;html=1;whiteSpace=wrap;connectable=0;fillColor=none;top=0;left=0;bottom=0;right=0;align=left;spacingLeft=6;overflow=hidden;strokeColor=inherit;fontSize=16;" vertex="1" parent="aKq8IcsFDjsxGVP1KrST-155">
          <mxGeometry x="74" width="256" height="30" as="geometry">
            <mxRectangle width="256" height="30" as="alternateBounds" />
          </mxGeometry>
        </mxCell>
        <mxCell id="aKq8IcsFDjsxGVP1KrST-158" value="" style="shape=tableRow;horizontal=0;startSize=0;swimlaneHead=0;swimlaneBody=0;top=0;left=0;bottom=0;right=0;collapsible=0;dropTarget=0;fillColor=none;points=[[0,0.5],[1,0.5]];portConstraint=eastwest;strokeColor=inherit;fontSize=16;" vertex="1" parent="aKq8IcsFDjsxGVP1KrST-151">
          <mxGeometry y="90" width="330" height="30" as="geometry" />
        </mxCell>
        <mxCell id="aKq8IcsFDjsxGVP1KrST-159" value="3" style="shape=partialRectangle;html=1;whiteSpace=wrap;connectable=0;fillColor=none;top=0;left=0;bottom=0;right=0;overflow=hidden;strokeColor=inherit;fontSize=16;" vertex="1" parent="aKq8IcsFDjsxGVP1KrST-158">
          <mxGeometry width="74" height="30" as="geometry">
            <mxRectangle width="74" height="30" as="alternateBounds" />
          </mxGeometry>
        </mxCell>
        <mxCell id="aKq8IcsFDjsxGVP1KrST-160" value="Indivíduo 7" style="shape=partialRectangle;html=1;whiteSpace=wrap;connectable=0;fillColor=none;top=0;left=0;bottom=0;right=0;align=left;spacingLeft=6;overflow=hidden;strokeColor=inherit;fontSize=16;" vertex="1" parent="aKq8IcsFDjsxGVP1KrST-158">
          <mxGeometry x="74" width="256" height="30" as="geometry">
            <mxRectangle width="256" height="30" as="alternateBounds" />
          </mxGeometry>
        </mxCell>
        <mxCell id="aKq8IcsFDjsxGVP1KrST-161" value="" style="endArrow=none;html=1;rounded=0;exitX=0.611;exitY=0.014;exitDx=0;exitDy=0;exitPerimeter=0;" edge="1" parent="1">
          <mxGeometry width="50" height="50" relative="1" as="geometry">
            <mxPoint x="604.38" y="-1290" as="sourcePoint" />
            <mxPoint x="604.38" y="-1352" as="targetPoint" />
          </mxGeometry>
        </mxCell>
        <mxCell id="aKq8IcsFDjsxGVP1KrST-173" value="" style="endArrow=none;html=1;rounded=0;exitX=0.611;exitY=0.014;exitDx=0;exitDy=0;exitPerimeter=0;" edge="1" parent="1">
          <mxGeometry width="50" height="50" relative="1" as="geometry">
            <mxPoint x="1059.38" y="-1290" as="sourcePoint" />
            <mxPoint x="1059.38" y="-1352" as="targetPoint" />
          </mxGeometry>
        </mxCell>
        <mxCell id="aKq8IcsFDjsxGVP1KrST-184" value="Diminuição da distância" style="shape=table;startSize=30;container=1;collapsible=0;childLayout=tableLayout;fixedRows=1;rowLines=0;fontStyle=0;strokeColor=default;fontSize=16;" vertex="1" parent="1">
          <mxGeometry x="970" y="-1290" width="180" height="120" as="geometry" />
        </mxCell>
        <mxCell id="aKq8IcsFDjsxGVP1KrST-185" value="" style="shape=tableRow;horizontal=0;startSize=0;swimlaneHead=0;swimlaneBody=0;top=0;left=0;bottom=0;right=0;collapsible=0;dropTarget=0;fillColor=none;points=[[0,0.5],[1,0.5]];portConstraint=eastwest;strokeColor=inherit;fontSize=16;" vertex="1" parent="aKq8IcsFDjsxGVP1KrST-184">
          <mxGeometry y="30" width="180" height="30" as="geometry" />
        </mxCell>
        <mxCell id="aKq8IcsFDjsxGVP1KrST-186" value="1" style="shape=partialRectangle;html=1;whiteSpace=wrap;connectable=0;fillColor=none;top=0;left=0;bottom=0;right=0;overflow=hidden;pointerEvents=1;strokeColor=inherit;fontSize=16;" vertex="1" parent="aKq8IcsFDjsxGVP1KrST-185">
          <mxGeometry width="40" height="30" as="geometry">
            <mxRectangle width="40" height="30" as="alternateBounds" />
          </mxGeometry>
        </mxCell>
        <mxCell id="aKq8IcsFDjsxGVP1KrST-187" value="Indivíduo 1" style="shape=partialRectangle;html=1;whiteSpace=wrap;connectable=0;fillColor=none;top=0;left=0;bottom=0;right=0;align=left;spacingLeft=6;overflow=hidden;strokeColor=inherit;fontSize=16;" vertex="1" parent="aKq8IcsFDjsxGVP1KrST-185">
          <mxGeometry x="40" width="140" height="30" as="geometry">
            <mxRectangle width="140" height="30" as="alternateBounds" />
          </mxGeometry>
        </mxCell>
        <mxCell id="aKq8IcsFDjsxGVP1KrST-188" value="" style="shape=tableRow;horizontal=0;startSize=0;swimlaneHead=0;swimlaneBody=0;top=0;left=0;bottom=0;right=0;collapsible=0;dropTarget=0;fillColor=none;points=[[0,0.5],[1,0.5]];portConstraint=eastwest;strokeColor=inherit;fontSize=16;" vertex="1" parent="aKq8IcsFDjsxGVP1KrST-184">
          <mxGeometry y="60" width="180" height="30" as="geometry" />
        </mxCell>
        <mxCell id="aKq8IcsFDjsxGVP1KrST-189" value="2" style="shape=partialRectangle;html=1;whiteSpace=wrap;connectable=0;fillColor=none;top=0;left=0;bottom=0;right=0;overflow=hidden;strokeColor=inherit;fontSize=16;" vertex="1" parent="aKq8IcsFDjsxGVP1KrST-188">
          <mxGeometry width="40" height="30" as="geometry">
            <mxRectangle width="40" height="30" as="alternateBounds" />
          </mxGeometry>
        </mxCell>
        <mxCell id="aKq8IcsFDjsxGVP1KrST-190" value="Indivíduo 4" style="shape=partialRectangle;html=1;whiteSpace=wrap;connectable=0;fillColor=none;top=0;left=0;bottom=0;right=0;align=left;spacingLeft=6;overflow=hidden;strokeColor=inherit;fontSize=16;" vertex="1" parent="aKq8IcsFDjsxGVP1KrST-188">
          <mxGeometry x="40" width="140" height="30" as="geometry">
            <mxRectangle width="140" height="30" as="alternateBounds" />
          </mxGeometry>
        </mxCell>
        <mxCell id="aKq8IcsFDjsxGVP1KrST-191" value="" style="shape=tableRow;horizontal=0;startSize=0;swimlaneHead=0;swimlaneBody=0;top=0;left=0;bottom=0;right=0;collapsible=0;dropTarget=0;fillColor=none;points=[[0,0.5],[1,0.5]];portConstraint=eastwest;strokeColor=inherit;fontSize=16;" vertex="1" parent="aKq8IcsFDjsxGVP1KrST-184">
          <mxGeometry y="90" width="180" height="30" as="geometry" />
        </mxCell>
        <mxCell id="aKq8IcsFDjsxGVP1KrST-192" value="3" style="shape=partialRectangle;html=1;whiteSpace=wrap;connectable=0;fillColor=none;top=0;left=0;bottom=0;right=0;overflow=hidden;strokeColor=inherit;fontSize=16;" vertex="1" parent="aKq8IcsFDjsxGVP1KrST-191">
          <mxGeometry width="40" height="30" as="geometry">
            <mxRectangle width="40" height="30" as="alternateBounds" />
          </mxGeometry>
        </mxCell>
        <mxCell id="aKq8IcsFDjsxGVP1KrST-193" value="Indivíduo 6" style="shape=partialRectangle;html=1;whiteSpace=wrap;connectable=0;fillColor=none;top=0;left=0;bottom=0;right=0;align=left;spacingLeft=6;overflow=hidden;strokeColor=inherit;fontSize=16;" vertex="1" parent="aKq8IcsFDjsxGVP1KrST-191">
          <mxGeometry x="40" width="140" height="30" as="geometry">
            <mxRectangle width="140" height="30" as="alternateBounds" />
          </mxGeometry>
        </mxCell>
        <mxCell id="aKq8IcsFDjsxGVP1KrST-195" value="" style="endArrow=none;html=1;rounded=0;exitX=0.611;exitY=0.014;exitDx=0;exitDy=0;exitPerimeter=0;" edge="1" parent="1">
          <mxGeometry width="50" height="50" relative="1" as="geometry">
            <mxPoint x="602" y="-1108" as="sourcePoint" />
            <mxPoint x="602" y="-1170" as="targetPoint" />
          </mxGeometry>
        </mxCell>
        <mxCell id="aKq8IcsFDjsxGVP1KrST-197" value="" style="endArrow=none;html=1;rounded=0;exitX=0.611;exitY=0.014;exitDx=0;exitDy=0;exitPerimeter=0;" edge="1" parent="1">
          <mxGeometry width="50" height="50" relative="1" as="geometry">
            <mxPoint x="1059.37" y="-1108" as="sourcePoint" />
            <mxPoint x="1059.37" y="-1170" as="targetPoint" />
          </mxGeometry>
        </mxCell>
        <mxCell id="aKq8IcsFDjsxGVP1KrST-198" value="&lt;font style=&quot;font-size: 20px;&quot;&gt;Seleção da primeira subpopulação&lt;/font&gt;" style="rhombus;whiteSpace=wrap;html=1;strokeColor=default;align=center;verticalAlign=middle;fontFamily=Helvetica;fontSize=16;fontColor=default;fontStyle=0;fillColor=default;" vertex="1" parent="1">
          <mxGeometry x="475" y="-1500" width="260" height="170" as="geometry" />
        </mxCell>
        <mxCell id="aKq8IcsFDjsxGVP1KrST-199" value="&lt;font style=&quot;font-size: 20px;&quot;&gt;Seleção da segunda subpopulação&lt;/font&gt;" style="rhombus;whiteSpace=wrap;html=1;strokeColor=default;align=center;verticalAlign=middle;fontFamily=Helvetica;fontSize=16;fontColor=default;fontStyle=0;fillColor=default;" vertex="1" parent="1">
          <mxGeometry x="930" y="-1500" width="260" height="170" as="geometry" />
        </mxCell>
        <mxCell id="aKq8IcsFDjsxGVP1KrST-200" value="&lt;span style=&quot;font-size: 25px;&quot;&gt;Distribuição Aleatória&lt;/span&gt;" style="rhombus;whiteSpace=wrap;html=1;strokeColor=default;align=center;verticalAlign=middle;fontFamily=Helvetica;fontSize=16;fontColor=default;fontStyle=0;fillColor=default;" vertex="1" parent="1">
          <mxGeometry x="700" y="-1980" width="260" height="170" as="geometry" />
        </mxCell>
        <mxCell id="aKq8IcsFDjsxGVP1KrST-202" value="" style="endArrow=none;html=1;rounded=0;exitX=0.5;exitY=0;exitDx=0;exitDy=0;" edge="1" parent="1" source="aKq8IcsFDjsxGVP1KrST-139" target="aKq8IcsFDjsxGVP1KrST-201">
          <mxGeometry width="50" height="50" relative="1" as="geometry">
            <mxPoint x="-250" y="-1340" as="sourcePoint" />
            <mxPoint x="-250.6299999999999" y="-1440" as="targetPoint" />
          </mxGeometry>
        </mxCell>
        <mxCell id="aKq8IcsFDjsxGVP1KrST-201" value="&lt;p style=&quot;line-height: 110%;&quot;&gt;&lt;font style=&quot;font-size: 21px;&quot;&gt;Seleção Roleta ou Torneio&lt;/font&gt;&lt;/p&gt;" style="rhombus;whiteSpace=wrap;html=1;strokeColor=default;align=center;verticalAlign=middle;fontFamily=Helvetica;fontSize=16;fontColor=default;fontStyle=0;fillColor=default;" vertex="1" parent="1">
          <mxGeometry x="-365" y="-1550" width="230" height="150" as="geometry" />
        </mxCell>
        <mxCell id="aKq8IcsFDjsxGVP1KrST-205" value="" style="endArrow=none;html=1;rounded=0;" edge="1" parent="1">
          <mxGeometry width="50" height="50" relative="1" as="geometry">
            <mxPoint x="610" y="-1520" as="sourcePoint" />
            <mxPoint x="1060" y="-1520" as="targetPoint" />
          </mxGeometry>
        </mxCell>
        <mxCell id="aKq8IcsFDjsxGVP1KrST-206" value="" style="endArrow=none;html=1;rounded=0;exitX=0.5;exitY=0;exitDx=0;exitDy=0;" edge="1" parent="1" source="aKq8IcsFDjsxGVP1KrST-199">
          <mxGeometry width="50" height="50" relative="1" as="geometry">
            <mxPoint x="1110" y="-1478" as="sourcePoint" />
            <mxPoint x="1060" y="-1520" as="targetPoint" />
          </mxGeometry>
        </mxCell>
        <mxCell id="aKq8IcsFDjsxGVP1KrST-209" value="" style="endArrow=none;html=1;rounded=0;exitX=0.5;exitY=0;exitDx=0;exitDy=0;" edge="1" parent="1">
          <mxGeometry width="50" height="50" relative="1" as="geometry">
            <mxPoint x="604.87" y="-1500" as="sourcePoint" />
            <mxPoint x="610" y="-1520" as="targetPoint" />
            <Array as="points">
              <mxPoint x="605" y="-1520" />
            </Array>
          </mxGeometry>
        </mxCell>
        <mxCell id="aKq8IcsFDjsxGVP1KrST-211" value="" style="endArrow=none;html=1;rounded=0;fontFamily=Helvetica;fontSize=16;fontColor=default;fontStyle=0;entryX=0.48;entryY=1.003;entryDx=0;entryDy=0;entryPerimeter=0;" edge="1" parent="1" target="aKq8IcsFDjsxGVP1KrST-203">
          <mxGeometry width="50" height="50" relative="1" as="geometry">
            <mxPoint x="827" y="-1520" as="sourcePoint" />
            <mxPoint x="840" y="-1510" as="targetPoint" />
          </mxGeometry>
        </mxCell>
        <mxCell id="aKq8IcsFDjsxGVP1KrST-214" value="" style="endArrow=none;html=1;rounded=0;exitX=0.611;exitY=0.014;exitDx=0;exitDy=0;exitPerimeter=0;" edge="1" parent="1">
          <mxGeometry width="50" height="50" relative="1" as="geometry">
            <mxPoint x="604.44" y="-928" as="sourcePoint" />
            <mxPoint x="604.44" y="-990" as="targetPoint" />
          </mxGeometry>
        </mxCell>
        <mxCell id="aKq8IcsFDjsxGVP1KrST-212" value="&lt;font style=&quot;font-size: 20px;&quot;&gt;Torneio da primeira subpopulação&lt;/font&gt;" style="rhombus;whiteSpace=wrap;html=1;strokeColor=default;align=center;verticalAlign=middle;fontFamily=Helvetica;fontSize=16;fontColor=default;fontStyle=0;fillColor=default;" vertex="1" parent="1">
          <mxGeometry x="475" y="-1130" width="260" height="170" as="geometry" />
        </mxCell>
        <mxCell id="aKq8IcsFDjsxGVP1KrST-215" value="Indivíduo escolhido " style="shape=table;startSize=30;container=1;collapsible=0;childLayout=tableLayout;fixedRows=1;rowLines=0;fontStyle=0;strokeColor=default;fontSize=16;align=center;verticalAlign=middle;fontFamily=Helvetica;fontColor=default;fillColor=default;" vertex="1" parent="1">
          <mxGeometry x="515" y="-930" width="180" height="60" as="geometry" />
        </mxCell>
        <mxCell id="aKq8IcsFDjsxGVP1KrST-216" value="" style="shape=tableRow;horizontal=0;startSize=0;swimlaneHead=0;swimlaneBody=0;top=0;left=0;bottom=0;right=0;collapsible=0;dropTarget=0;fillColor=none;points=[[0,0.5],[1,0.5]];portConstraint=eastwest;strokeColor=inherit;fontSize=16;align=center;verticalAlign=middle;fontFamily=Helvetica;fontColor=default;fontStyle=0;" vertex="1" parent="aKq8IcsFDjsxGVP1KrST-215">
          <mxGeometry y="30" width="180" height="30" as="geometry" />
        </mxCell>
        <mxCell id="aKq8IcsFDjsxGVP1KrST-217" value="1" style="shape=partialRectangle;html=1;whiteSpace=wrap;connectable=0;fillColor=none;top=0;left=0;bottom=0;right=0;overflow=hidden;pointerEvents=1;strokeColor=inherit;fontSize=16;align=center;verticalAlign=middle;fontFamily=Helvetica;fontColor=default;fontStyle=0;" vertex="1" parent="aKq8IcsFDjsxGVP1KrST-216">
          <mxGeometry width="40" height="30" as="geometry">
            <mxRectangle width="40" height="30" as="alternateBounds" />
          </mxGeometry>
        </mxCell>
        <mxCell id="aKq8IcsFDjsxGVP1KrST-218" value="Indivíduo 2" style="shape=partialRectangle;html=1;whiteSpace=wrap;connectable=0;fillColor=none;top=0;left=0;bottom=0;right=0;align=left;spacingLeft=6;overflow=hidden;strokeColor=inherit;fontSize=16;verticalAlign=middle;fontFamily=Helvetica;fontColor=default;fontStyle=0;" vertex="1" parent="aKq8IcsFDjsxGVP1KrST-216">
          <mxGeometry x="40" width="140" height="30" as="geometry">
            <mxRectangle width="140" height="30" as="alternateBounds" />
          </mxGeometry>
        </mxCell>
        <mxCell id="aKq8IcsFDjsxGVP1KrST-228" value="Indivíduo escolhido " style="shape=table;startSize=30;container=1;collapsible=0;childLayout=tableLayout;fixedRows=1;rowLines=0;fontStyle=0;strokeColor=default;fontSize=16;align=center;verticalAlign=middle;fontFamily=Helvetica;fontColor=default;fillColor=default;" vertex="1" parent="1">
          <mxGeometry x="960" y="-930" width="180" height="60" as="geometry" />
        </mxCell>
        <mxCell id="aKq8IcsFDjsxGVP1KrST-229" value="" style="shape=tableRow;horizontal=0;startSize=0;swimlaneHead=0;swimlaneBody=0;top=0;left=0;bottom=0;right=0;collapsible=0;dropTarget=0;fillColor=none;points=[[0,0.5],[1,0.5]];portConstraint=eastwest;strokeColor=inherit;fontSize=16;align=center;verticalAlign=middle;fontFamily=Helvetica;fontColor=default;fontStyle=0;" vertex="1" parent="aKq8IcsFDjsxGVP1KrST-228">
          <mxGeometry y="30" width="180" height="30" as="geometry" />
        </mxCell>
        <mxCell id="aKq8IcsFDjsxGVP1KrST-230" value="1" style="shape=partialRectangle;html=1;whiteSpace=wrap;connectable=0;fillColor=none;top=0;left=0;bottom=0;right=0;overflow=hidden;pointerEvents=1;strokeColor=inherit;fontSize=16;align=center;verticalAlign=middle;fontFamily=Helvetica;fontColor=default;fontStyle=0;" vertex="1" parent="aKq8IcsFDjsxGVP1KrST-229">
          <mxGeometry width="40" height="30" as="geometry">
            <mxRectangle width="40" height="30" as="alternateBounds" />
          </mxGeometry>
        </mxCell>
        <mxCell id="aKq8IcsFDjsxGVP1KrST-231" value="Indivíduo 6" style="shape=partialRectangle;html=1;whiteSpace=wrap;connectable=0;fillColor=none;top=0;left=0;bottom=0;right=0;align=left;spacingLeft=6;overflow=hidden;strokeColor=inherit;fontSize=16;verticalAlign=middle;fontFamily=Helvetica;fontColor=default;fontStyle=0;" vertex="1" parent="aKq8IcsFDjsxGVP1KrST-229">
          <mxGeometry x="40" width="140" height="30" as="geometry">
            <mxRectangle width="140" height="30" as="alternateBounds" />
          </mxGeometry>
        </mxCell>
        <mxCell id="aKq8IcsFDjsxGVP1KrST-232" value="" style="endArrow=none;html=1;rounded=0;exitX=0.611;exitY=0.014;exitDx=0;exitDy=0;exitPerimeter=0;" edge="1" parent="1">
          <mxGeometry width="50" height="50" relative="1" as="geometry">
            <mxPoint x="1059.44" y="-930" as="sourcePoint" />
            <mxPoint x="1059.44" y="-992" as="targetPoint" />
          </mxGeometry>
        </mxCell>
        <mxCell id="aKq8IcsFDjsxGVP1KrST-213" value="&lt;font style=&quot;font-size: 20px;&quot;&gt;Torneio da segunda subpopulação&lt;/font&gt;" style="rhombus;whiteSpace=wrap;html=1;strokeColor=default;align=center;verticalAlign=middle;fontFamily=Helvetica;fontSize=16;fontColor=default;fontStyle=0;fillColor=default;" vertex="1" parent="1">
          <mxGeometry x="930" y="-1130" width="260" height="170" as="geometry" />
        </mxCell>
        <mxCell id="aKq8IcsFDjsxGVP1KrST-233" value="&lt;p style=&quot;line-height: 110%;&quot;&gt;&lt;font style=&quot;font-size: 19px;&quot;&gt;Cruzamento de um ou dois pontos&lt;/font&gt;&lt;/p&gt;" style="rhombus;whiteSpace=wrap;html=1;strokeColor=default;align=center;verticalAlign=middle;fontFamily=Helvetica;fontSize=16;fontColor=default;fontStyle=0;fillColor=default;" vertex="1" parent="1">
          <mxGeometry x="-365" y="-1190" width="230" height="150" as="geometry" />
        </mxCell>
        <mxCell id="aKq8IcsFDjsxGVP1KrST-236" value="Próxima População" style="shape=table;startSize=30;container=1;collapsible=0;childLayout=tableLayout;fixedRows=1;rowLines=0;fontStyle=0;strokeColor=default;fontSize=16;" vertex="1" parent="1">
          <mxGeometry x="-380" y="-1000" width="260" height="60" as="geometry" />
        </mxCell>
        <mxCell id="aKq8IcsFDjsxGVP1KrST-237" value="" style="shape=tableRow;horizontal=0;startSize=0;swimlaneHead=0;swimlaneBody=0;top=0;left=0;bottom=0;right=0;collapsible=0;dropTarget=0;fillColor=none;points=[[0,0.5],[1,0.5]];portConstraint=eastwest;strokeColor=inherit;fontSize=16;" vertex="1" parent="aKq8IcsFDjsxGVP1KrST-236">
          <mxGeometry y="30" width="260" height="30" as="geometry" />
        </mxCell>
        <mxCell id="aKq8IcsFDjsxGVP1KrST-238" value="1" style="shape=partialRectangle;html=1;whiteSpace=wrap;connectable=0;fillColor=none;top=0;left=0;bottom=0;right=0;overflow=hidden;pointerEvents=1;strokeColor=inherit;fontSize=16;" vertex="1" parent="aKq8IcsFDjsxGVP1KrST-237">
          <mxGeometry width="58" height="30" as="geometry">
            <mxRectangle width="58" height="30" as="alternateBounds" />
          </mxGeometry>
        </mxCell>
        <mxCell id="aKq8IcsFDjsxGVP1KrST-239" value="Filho 1" style="shape=partialRectangle;html=1;whiteSpace=wrap;connectable=0;fillColor=none;top=0;left=0;bottom=0;right=0;align=left;spacingLeft=6;overflow=hidden;strokeColor=inherit;fontSize=16;" vertex="1" parent="aKq8IcsFDjsxGVP1KrST-237">
          <mxGeometry x="58" width="202" height="30" as="geometry">
            <mxRectangle width="202" height="30" as="alternateBounds" />
          </mxGeometry>
        </mxCell>
        <mxCell id="aKq8IcsFDjsxGVP1KrST-245" value="&lt;p style=&quot;line-height: 110%;&quot;&gt;&lt;font style=&quot;font-size: 19px;&quot;&gt;Cruzamento de um ou dois pontos&lt;/font&gt;&lt;/p&gt;" style="rhombus;whiteSpace=wrap;html=1;strokeColor=default;align=center;verticalAlign=middle;fontFamily=Helvetica;fontSize=16;fontColor=default;fontStyle=0;fillColor=default;" vertex="1" parent="1">
          <mxGeometry x="715" y="-780" width="230" height="150" as="geometry" />
        </mxCell>
        <mxCell id="aKq8IcsFDjsxGVP1KrST-246" value="" style="endArrow=none;html=1;rounded=0;exitX=0;exitY=0.5;exitDx=0;exitDy=0;entryX=0.477;entryY=1.112;entryDx=0;entryDy=0;entryPerimeter=0;" edge="1" parent="1" source="aKq8IcsFDjsxGVP1KrST-245" target="aKq8IcsFDjsxGVP1KrST-216">
          <mxGeometry width="50" height="50" relative="1" as="geometry">
            <mxPoint x="650" y="-758" as="sourcePoint" />
            <mxPoint x="650" y="-820" as="targetPoint" />
            <Array as="points">
              <mxPoint x="600" y="-705" />
            </Array>
          </mxGeometry>
        </mxCell>
        <mxCell id="aKq8IcsFDjsxGVP1KrST-247" value="" style="endArrow=none;html=1;rounded=0;exitX=1;exitY=0.5;exitDx=0;exitDy=0;entryX=0.477;entryY=1.112;entryDx=0;entryDy=0;entryPerimeter=0;" edge="1" parent="1" source="aKq8IcsFDjsxGVP1KrST-245">
          <mxGeometry width="50" height="50" relative="1" as="geometry">
            <mxPoint x="1175" y="-708" as="sourcePoint" />
            <mxPoint x="1061" y="-870" as="targetPoint" />
            <Array as="points">
              <mxPoint x="1060" y="-705" />
            </Array>
          </mxGeometry>
        </mxCell>
        <mxCell id="aKq8IcsFDjsxGVP1KrST-248" value="Próxima População" style="shape=table;startSize=30;container=1;collapsible=0;childLayout=tableLayout;fixedRows=1;rowLines=0;fontStyle=0;strokeColor=default;fontSize=16;" vertex="1" parent="1">
          <mxGeometry x="700" y="-570" width="260" height="60" as="geometry" />
        </mxCell>
        <mxCell id="aKq8IcsFDjsxGVP1KrST-249" value="" style="shape=tableRow;horizontal=0;startSize=0;swimlaneHead=0;swimlaneBody=0;top=0;left=0;bottom=0;right=0;collapsible=0;dropTarget=0;fillColor=none;points=[[0,0.5],[1,0.5]];portConstraint=eastwest;strokeColor=inherit;fontSize=16;" vertex="1" parent="aKq8IcsFDjsxGVP1KrST-248">
          <mxGeometry y="30" width="260" height="30" as="geometry" />
        </mxCell>
        <mxCell id="aKq8IcsFDjsxGVP1KrST-250" value="1" style="shape=partialRectangle;html=1;whiteSpace=wrap;connectable=0;fillColor=none;top=0;left=0;bottom=0;right=0;overflow=hidden;pointerEvents=1;strokeColor=inherit;fontSize=16;" vertex="1" parent="aKq8IcsFDjsxGVP1KrST-249">
          <mxGeometry width="58" height="30" as="geometry">
            <mxRectangle width="58" height="30" as="alternateBounds" />
          </mxGeometry>
        </mxCell>
        <mxCell id="aKq8IcsFDjsxGVP1KrST-251" value="Filho 1" style="shape=partialRectangle;html=1;whiteSpace=wrap;connectable=0;fillColor=none;top=0;left=0;bottom=0;right=0;align=left;spacingLeft=6;overflow=hidden;strokeColor=inherit;fontSize=16;" vertex="1" parent="aKq8IcsFDjsxGVP1KrST-249">
          <mxGeometry x="58" width="202" height="30" as="geometry">
            <mxRectangle width="202" height="30" as="alternateBounds" />
          </mxGeometry>
        </mxCell>
        <mxCell id="aKq8IcsFDjsxGVP1KrST-252" value="" style="endArrow=none;html=1;rounded=0;exitX=0.611;exitY=0.014;exitDx=0;exitDy=0;exitPerimeter=0;" edge="1" parent="1">
          <mxGeometry width="50" height="50" relative="1" as="geometry">
            <mxPoint x="829.4699999999999" y="-568" as="sourcePoint" />
            <mxPoint x="829.4699999999999" y="-630" as="targetPoint" />
          </mxGeometry>
        </mxCell>
      </root>
    </mxGraphModel>
  </diagram>
</mxfile>
